# xmcd
#
# Track frame offsets: 
#        150
#        23271
#        49146
#        68005
#        81981
#        97583
#        118088
#        132510
#        147237
#        169217
#        190895
#
# Disc length: 2817 seconds
#
# Revision: 0
# Processed by: cddbd v1.5.2PL0 Copyright (c) Steve Scherf et al.
# Submitted via: ExactAudioCopy v0.99pb4
#
DISCID=8e0aff0b
DTITLE=SharBaby - SharBaby's 11 O'Clock Blues
DYEAR=2011
DGENRE=Blues
TTITLE0=Slippin
TTITLE1=Cause I Love Ya
TTITLE2=The Stalker [Rosie Brittain]
TTITLE3=Pick in My Pocket
TTITLE4=Busted
TTITLE5=Remember When
TTITLE6=I'm Ready
TTITLE7=Alabama Bound
TTITLE8=Red Eyed Snake
TTITLE9=Beer 'N' Atmosphere
TTITLE10=Keep Your Mind to Yourself
EXTD=
EXTT0=
EXTT1=
EXTT2=
EXTT3=
EXTT4=
EXTT5=
EXTT6=
EXTT7=
EXTT8=
EXTT9=
EXTT10=
PLAYORDER=
